HIERARCHY
ROOT Hips
{
	OFFSET 0.000000 71.427986 0.000000
	CHANNELS 6 Xposition Yposition Zposition Xrotation Yrotation Zrotation
	JOINT Pelvis
	{
		OFFSET 0.000000 0.000000 0.000000
		CHANNELS 3 Xrotation Yrotation Zrotation
		JOINT LeftUpLeg
		{
			OFFSET 6.797100 -2.508499 -1.318700
			CHANNELS 3 Xrotation Yrotation Zrotation
			JOINT LeftLeg
			{
				OFFSET 0.069008 -29.241863 0.690200
				CHANNELS 3 Xrotation Yrotation Zrotation
				JOINT LeftFoot
				{
					OFFSET -0.069008 -29.568123 -0.266800
					CHANNELS 3 Xrotation Yrotation Zrotation
					JOINT LeftToeBase
					{
						OFFSET 3.145500 -8.631000 16.059900
						CHANNELS 3 Xrotation Yrotation Zrotation
						End Site
						{
							OFFSET 0.000000 18.501587 0.000000
						}
					}
				}
			}
			JOINT Left_ShortSleeve
			{
				OFFSET 0.265923 -10.480953 1.153800
				CHANNELS 3 Xrotation Yrotation Zrotation
				End Site
				{
					OFFSET 1.725763 19.823879 0.000000
				}
			}
		}
		JOINT RightUpLeg
		{
			OFFSET -6.797100 -2.508499 -1.318700
			CHANNELS 3 Xrotation Yrotation Zrotation
			JOINT RightLeg
			{
				OFFSET -0.082453 -29.241932 0.688000
				CHANNELS 3 Xrotation Yrotation Zrotation
				JOINT RightFoot
				{
					OFFSET 0.082453 -29.568058 -0.264600
					CHANNELS 3 Xrotation Yrotation Zrotation
					JOINT RightToeBase
					{
						OFFSET -3.115300 -8.682800 16.113400
						CHANNELS 3 Xrotation Yrotation Zrotation
						End Site
						{
							OFFSET 0.000000 18.567114 0.000000
						}
					}
				}
			}
			JOINT Right_ShortSleeve
			{
				OFFSET -0.265923 -10.480953 1.153800
				CHANNELS 3 Xrotation Yrotation Zrotation
				End Site
				{
					OFFSET -1.725766 19.823910 0.000000
				}
			}
		}
	}
	JOINT Spine
	{
		OFFSET 0.000000 13.368103 0.470500
		CHANNELS 3 Xrotation Yrotation Zrotation
		JOINT Spine1
		{
			OFFSET 0.147000 13.837402 0.538800
			CHANNELS 3 Xrotation Yrotation Zrotation
			JOINT Spine2
			{
				OFFSET 0.168000 16.242897 -1.435500
				CHANNELS 3 Xrotation Yrotation Zrotation
				JOINT Neck
				{
					OFFSET 0.217200 18.631500 -1.679100
					CHANNELS 3 Xrotation Yrotation Zrotation
					JOINT Head
					{
						OFFSET 0.000000 6.599396 1.385900
						CHANNELS 3 Xrotation Yrotation Zrotation
						JOINT Hat
						{
							OFFSET -0.532200 27.220596 -10.096100
							CHANNELS 3 Xrotation Yrotation Zrotation
							End Site
							{
								OFFSET 0.000000 22.029861 0.000000
							}
						}
						JOINT HairD
						{
							OFFSET -10.777400 17.437393 -1.325900
							CHANNELS 3 Xrotation Yrotation Zrotation
							JOINT HairD1
							{
								OFFSET -3.290299 -11.051193 1.062200
								CHANNELS 3 Xrotation Yrotation Zrotation
								End Site
								{
									OFFSET 0.000000 11.579437 0.000000
								}
							}
						}
						JOINT HairB
						{
							OFFSET -10.777400 17.437393 1.467900
							CHANNELS 3 Xrotation Yrotation Zrotation
							JOINT HairB1
							{
								OFFSET -1.561200 -12.956299 3.590200
								CHANNELS 3 Xrotation Yrotation Zrotation
								End Site
								{
									OFFSET 0.000000 13.534866 0.000000
								}
							}
						}
						JOINT HairA
						{
							OFFSET 9.713100 17.437393 1.467900
							CHANNELS 3 Xrotation Yrotation Zrotation
							JOINT HairA1
							{
								OFFSET 1.561200 -12.956299 3.590200
								CHANNELS 3 Xrotation Yrotation Zrotation
								End Site
								{
									OFFSET 0.000000 13.534866 0.000000
								}
							}
						}
						JOINT HairC
						{
							OFFSET 9.713100 17.437393 -1.325900
							CHANNELS 3 Xrotation Yrotation Zrotation
							JOINT HairC1
							{
								OFFSET 3.290300 -11.051193 1.062200
								CHANNELS 3 Xrotation Yrotation Zrotation
								End Site
								{
									OFFSET 0.000000 11.579437 0.000000
								}
							}
						}
					}
				}
				JOINT LeftShoulder
				{
					OFFSET 5.101800 15.108002 -2.763700
					CHANNELS 3 Xrotation Yrotation Zrotation
					JOINT LeftArm
					{
						OFFSET 9.825497 2.506317 -1.597400
						CHANNELS 3 Xrotation Yrotation Zrotation
						JOINT LeftForeArm
						{
							OFFSET 21.966244 0.000000 0.000000
							CHANNELS 3 Xrotation Yrotation Zrotation
							JOINT LeftHand
							{
								OFFSET 33.879036 0.000000 0.000000
								CHANNELS 3 Xrotation Yrotation Zrotation
								JOINT LeftHandThumb1
								{
									OFFSET 6.715286 -2.359680 3.363841
									CHANNELS 3 Xrotation Yrotation Zrotation
									JOINT LeftHandThumb2
									{
										OFFSET 2.507072 -1.447464 1.447461
										CHANNELS 3 Xrotation Yrotation Zrotation
										JOINT LeftHandThumb3
										{
											OFFSET 2.898338 -1.673355 1.673357
											CHANNELS 3 Xrotation Yrotation Zrotation
											End Site
											{
												OFFSET -0.295959 3.727692 -0.131651
											}
										}
									}
								}
								JOINT LeftHandIndex1
								{
									OFFSET 14.190811 -0.254547 3.840278
									CHANNELS 3 Xrotation Yrotation Zrotation
									JOINT LeftHandIndex2
									{
										OFFSET 3.551727 0.000000 -0.000000
										CHANNELS 3 Xrotation Yrotation Zrotation
										JOINT LeftHandIndex3
										{
											OFFSET 2.894196 0.000000 0.000000
											CHANNELS 3 Xrotation Yrotation Zrotation
											End Site
											{
												OFFSET -1.000603 2.690872 0.366626
											}
										}
									}
								}
								JOINT LeftHandMiddle1
								{
									OFFSET 13.776489 0.000000 0.000000
									CHANNELS 3 Xrotation Yrotation Zrotation
									JOINT LeftHandMiddle2
									{
										OFFSET 3.438232 0.000000 0.000000
										CHANNELS 3 Xrotation Yrotation Zrotation
										JOINT LeftHandMiddle3
										{
											OFFSET 3.691551 0.000000 0.000000
											CHANNELS 3 Xrotation Yrotation Zrotation
											End Site
											{
												OFFSET -1.082298 3.499527 0.457670
											}
										}
									}
								}
								JOINT LeftHandRing1
								{
									OFFSET 13.966164 -0.268127 -3.067488
									CHANNELS 3 Xrotation Yrotation Zrotation
									JOINT LeftHandRing2
									{
										OFFSET 3.162567 0.000000 0.000000
										CHANNELS 3 Xrotation Yrotation Zrotation
										JOINT LeftHandRing3
										{
											OFFSET 3.324348 0.000000 0.000000
											CHANNELS 3 Xrotation Yrotation Zrotation
											End Site
											{
												OFFSET -0.861900 3.184998 0.405154
											}
										}
									}
								}
								JOINT LeftHandPinky1
								{
									OFFSET 13.131393 -0.168503 -5.746925
									CHANNELS 3 Xrotation Yrotation Zrotation
									JOINT LeftHandPinky2
									{
										OFFSET 2.849182 0.000000 0.000000
										CHANNELS 3 Xrotation Yrotation Zrotation
										JOINT LeftHandPinky3
										{
											OFFSET 2.805038 0.000000 0.000000
											CHANNELS 3 Xrotation Yrotation Zrotation
											End Site
											{
												OFFSET -0.882500 2.642609 0.325652
											}
										}
									}
								}
							}
							JOINT Left_Sleeve
							{
								OFFSET 6.592125 -0.646545 0.805568
								CHANNELS 3 Xrotation Yrotation Zrotation
								End Site
								{
									OFFSET -0.000179 20.275787 -0.000000
								}
							}
						}
					}
				}
				JOINT RightShoulder
				{
					OFFSET -5.731700 15.108002 -2.763700
					CHANNELS 3 Xrotation Yrotation Zrotation
					JOINT RightArm
					{
						OFFSET -9.825497 2.506317 -1.597400
						CHANNELS 3 Xrotation Yrotation Zrotation
						JOINT RightForeArm
						{
							OFFSET -21.966242 0.000000 0.000000
							CHANNELS 3 Xrotation Yrotation Zrotation
							JOINT RightHand
							{
								OFFSET -33.879032 0.000000 0.000000
								CHANNELS 3 Xrotation Yrotation Zrotation
								JOINT RightHandThumb1
								{
									OFFSET -6.715286 -2.359680 3.363841
									CHANNELS 3 Xrotation Yrotation Zrotation
									JOINT RightHandThumb2
									{
										OFFSET -2.507072 -1.447464 1.447461
										CHANNELS 3 Xrotation Yrotation Zrotation
										JOINT RightHandThumb3
										{
											OFFSET -2.898338 -1.673355 1.673357
											CHANNELS 3 Xrotation Yrotation Zrotation
											End Site
											{
												OFFSET 0.295959 3.727692 -0.131651
											}
										}
									}
								}
								JOINT RightHandIndex1
								{
									OFFSET -14.190811 -0.254547 3.840278
									CHANNELS 3 Xrotation Yrotation Zrotation
									JOINT RightHandIndex2
									{
										OFFSET -3.551727 0.000000 -0.000000
										CHANNELS 3 Xrotation Yrotation Zrotation
										JOINT RightHandIndex3
										{
											OFFSET -2.894196 0.000000 0.000000
											CHANNELS 3 Xrotation Yrotation Zrotation
											End Site
											{
												OFFSET 1.000603 2.690872 0.366626
											}
										}
									}
								}
								JOINT RightHandMiddle1
								{
									OFFSET -13.776489 0.000000 0.000000
									CHANNELS 3 Xrotation Yrotation Zrotation
									JOINT RightHandMiddle2
									{
										OFFSET -3.438232 0.000000 0.000000
										CHANNELS 3 Xrotation Yrotation Zrotation
										JOINT RightHandMiddle3
										{
											OFFSET -3.691551 0.000000 0.000000
											CHANNELS 3 Xrotation Yrotation Zrotation
											End Site
											{
												OFFSET 1.082298 3.499527 0.457670
											}
										}
									}
								}
								JOINT RightHandRing1
								{
									OFFSET -13.966164 -0.268127 -3.067488
									CHANNELS 3 Xrotation Yrotation Zrotation
									JOINT RightHandRing2
									{
										OFFSET -3.162567 0.000000 0.000000
										CHANNELS 3 Xrotation Yrotation Zrotation
										JOINT RightHandRing3
										{
											OFFSET -3.324348 0.000000 0.000000
											CHANNELS 3 Xrotation Yrotation Zrotation
											End Site
											{
												OFFSET 0.861900 3.184998 0.405154
											}
										}
									}
								}
								JOINT RightHandPinky1
								{
									OFFSET -13.131393 -0.168503 -5.746925
									CHANNELS 3 Xrotation Yrotation Zrotation
									JOINT RightHandPinky2
									{
										OFFSET -2.849182 0.000000 0.000000
										CHANNELS 3 Xrotation Yrotation Zrotation
										JOINT RightHandPinky3
										{
											OFFSET -2.805038 0.000000 0.000000
											CHANNELS 3 Xrotation Yrotation Zrotation
											End Site
											{
												OFFSET 0.882500 2.642609 0.325652
											}
										}
									}
								}
							}
							JOINT Right_Sleeve
							{
								OFFSET -6.592125 -0.646545 0.805568
								CHANNELS 3 Xrotation Yrotation Zrotation
								End Site
								{
									OFFSET 0.000179 20.275787 -0.000000
								}
							}
						}
					}
				}
				JOINT Bind_Right_JacketString
				{
					OFFSET -3.534800 11.969597 7.200700
					CHANNELS 3 Xrotation Yrotation Zrotation
					JOINT Bind_Right_JacketString1
					{
						OFFSET -0.319900 -6.102600 2.794100
						CHANNELS 3 Xrotation Yrotation Zrotation
						End Site
						{
							OFFSET 0.000000 6.719452 0.000000
						}
					}
				}
				JOINT Bind_Left_JacketString
				{
					OFFSET 2.904800 11.969597 7.200700
					CHANNELS 3 Xrotation Yrotation Zrotation
					JOINT Bind_Left_JacketString1
					{
						OFFSET 0.364800 -5.904503 3.186800
						CHANNELS 3 Xrotation Yrotation Zrotation
						End Site
						{
							OFFSET 0.000000 6.719513 0.000000
						}
					}
				}
				JOINT HairE
				{
					OFFSET 5.915200 17.612701 -11.592200
					CHANNELS 3 Xrotation Yrotation Zrotation
					JOINT HairE1
					{
						OFFSET 0.289200 -7.171898 -1.284500
						CHANNELS 3 Xrotation Yrotation Zrotation
						End Site
						{
							OFFSET 0.000000 7.291756 0.000000
						}
					}
				}
				JOINT HairF
				{
					OFFSET -0.864800 17.612701 -11.592200
					CHANNELS 3 Xrotation Yrotation Zrotation
					JOINT HairF1
					{
						OFFSET 0.000000 -14.087097 -2.127501
						CHANNELS 3 Xrotation Yrotation Zrotation
						End Site
						{
							OFFSET 0.000000 14.246841 0.000000
						}
					}
				}
				JOINT HairG
				{
					OFFSET -8.087700 17.612701 -11.592200
					CHANNELS 3 Xrotation Yrotation Zrotation
					JOINT HairG1
					{
						OFFSET -0.293600 -6.081398 -0.910100
						CHANNELS 3 Xrotation Yrotation Zrotation
						End Site
						{
							OFFSET 0.000000 6.156120 0.000000
						}
					}
				}
			}
		}
	}
	JOINT Pouch
	{
		OFFSET 0.000000 4.394501 10.847300
		CHANNELS 3 Xrotation Yrotation Zrotation
		End Site
		{
			OFFSET 0.000000 21.880577 0.000000
		}
	}
	JOINT Bag
	{
		OFFSET -13.229000 4.813004 -0.593300
		CHANNELS 3 Xrotation Yrotation Zrotation
		End Site
		{
			OFFSET 0.000000 21.880577 0.000000
		}
	}
	JOINT OccupyGuyFacialAnim_Joint
	{
		OFFSET 1.000000 -70.206398 -1.655000
		CHANNELS 3 Xrotation Yrotation Zrotation
		End Site
		{
			OFFSET 0.000000 21.880577 0.000000
		}
	}
}
MOTION
Frames: 4
Frame Time: 0.033333
1.654950 61.936409 441.767365 15.155461 -14.363263 8.386438 -0.000000 0.000000 -0.000000 -22.622599 11.870508 3.406921 115.435005 -10.180327 -2.778155 -22.128585 -4.976002 1.990389 0.000000 0.000001 -0.000000 0.000001 0.000000 -0.000000 -51.698924 -5.680287 1.638698 61.311910 -4.493590 -0.599685 -24.672651 4.693837 -6.692802 -0.000000 0.000000 -0.000000 0.000000 -0.000001 -0.000001 21.523506 3.595275 -12.449954 10.626973 1.691457 6.363540 10.911741 2.518255 6.711314 -1.355031 1.041793 -4.242324 -38.362683 8.753715 -5.810418 0.000001 0.000000 0.000000 0.000001 0.000000 0.000000 0.000001 0.000000 -0.000000 0.000001 0.000000 0.000000 0.000001 0.000000 0.000000 0.000001 0.000000 0.000000 0.000001 0.000000 0.000000 0.000001 0.000000 0.000000 0.000001 0.000000 0.000000 4.654915 -4.874032 -9.627558 30.737347 0.047105 -53.289710 0.000081 -116.297426 0.000081 -4.657445 -2.225173 9.862215 -6.414429 -8.233361 17.003701 29.153016 36.299993 -15.211801 0.000002 -0.000000 0.000000 2.360458 3.080693 -12.754095 4.248089 5.627914 -74.073456 0.000002 -0.000001 -0.000002 6.517855 12.290117 -39.158171 4.107917 5.586235 -72.638987 0.000001 0.000001 -0.000003 8.295471 11.526480 -52.445898 3.470508 5.346423 -65.955196 0.000001 0.000001 0.000000 7.791432 20.075705 -56.162173 3.809050 5.484336 -69.541195 -0.000000 -0.000004 0.000002 0.000001 0.000000 -0.000000 -0.907886 8.330196 9.905968 -47.437645 30.962217 58.799193 0.000188 104.298778 -0.000200 2.257087 8.842007 7.142526 -6.696986 7.238162 -17.467389 14.128414 -24.954847 -7.594451 0.000000 0.000001 -0.000000 7.152743 -13.883866 34.795729 3.285426 -4.450982 72.852198 -0.000001 0.000001 0.000000 7.754244 -12.071547 44.126427 2.694062 -4.224020 65.044882 0.000002 -0.000001 -0.000001 11.112266 -11.335186 60.113752 2.813767 -4.277550 66.659901 0.000002 -0.000003 0.000001 9.858607 -27.428098 60.080974 2.646366 -4.201559 64.395686 0.000001 -0.000000 -0.000001 0.000001 -0.000000 -0.000002 0.000002 0.000001 -0.000001 0.000002 0.000001 -0.000002 0.000002 0.000001 -0.000001 0.000002 0.000001 -0.000001 0.000002 0.000001 -0.000001 0.000002 0.000001 -0.000001 0.000002 0.000001 -0.000001 0.000002 0.000001 -0.000001 0.000002 0.000001 -0.000001 0.000002 0.000001 -0.000001 -0.000000 0.000000 -0.000000 -0.000000 0.000000 -0.000000 -0.000000 0.000000 -0.000000 
1.443709 62.272163 454.397766 14.783970 -16.179338 5.226607 -0.000000 0.000002 -0.000000 -46.634657 12.504439 15.039697 122.555628 -10.160747 -2.534780 -29.751973 -8.924864 2.299779 0.000003 -0.000000 -0.000000 0.000004 0.000000 -0.000000 -37.345244 -3.308784 5.423609 61.014182 -8.038766 -4.013224 -37.216792 2.257630 -0.610365 -0.000000 -0.000003 -0.000000 -0.000001 -0.000002 0.000001 28.770218 10.218221 -13.839196 5.547275 2.508060 7.550071 5.582111 3.282964 7.656565 -1.280429 0.684020 -4.848630 -34.864421 4.195428 -8.468550 0.000002 0.000000 0.000000 0.000002 0.000000 0.000000 0.000002 0.000000 0.000000 0.000002 0.000000 0.000000 0.000002 0.000000 0.000000 0.000002 0.000000 0.000000 0.000002 0.000000 0.000000 0.000002 0.000000 0.000000 0.000002 0.000000 0.000000 5.463529 1.517894 -2.523399 42.090436 1.831632 -63.901952 -0.000029 -113.964425 -0.000027 -9.334722 -15.058899 10.378947 -6.414424 -8.233361 17.003700 29.343186 36.467364 -15.405953 0.000000 -0.000002 -0.000003 -0.296497 3.179760 -36.041525 3.857162 5.501950 -70.044102 -0.000000 0.000000 -0.000004 5.092217 9.076758 -52.528680 3.954930 5.536305 -71.060373 0.000001 -0.000001 0.000001 4.859919 8.555125 -58.544775 3.643184 5.419848 -67.795597 -0.000001 0.000003 -0.000001 6.914685 16.732700 -60.076158 3.758524 5.465297 -69.011740 -0.000000 -0.000000 0.000003 0.000002 -0.000000 0.000000 -1.270294 12.974894 7.924254 -49.082655 32.160069 60.290626 0.000070 117.155339 -0.000075 13.509116 6.071651 1.361453 -6.696978 7.238168 -17.467387 12.417072 -20.997912 -8.970462 0.000000 0.000000 0.000001 7.278389 -11.224469 45.893776 3.249938 -4.439909 72.394254 -0.000004 0.000001 0.000004 6.285240 -9.449291 51.620818 2.629712 -4.193564 64.168268 0.000001 -0.000002 0.000001 8.989980 -9.584518 63.687853 2.743728 -4.246741 65.717683 -0.000002 -0.000004 -0.000001 6.716770 -20.538217 54.500945 2.638294 -4.197710 64.285734 0.000000 -0.000001 0.000000 0.000000 -0.000003 -0.000001 -0.000003 -0.000001 0.000001 0.000000 0.000000 -0.000000 -0.000003 -0.000001 0.000001 -0.000003 -0.000001 0.000001 -0.000003 -0.000001 0.000001 0.000000 0.000000 -0.000000 -0.000003 -0.000001 0.000001 -0.000003 -0.000001 0.000001 -0.000003 -0.000001 0.000001 0.000000 0.000000 -0.000000 -0.000000 0.000002 -0.000000 -0.000000 0.000002 -0.000000 -0.000000 0.000002 -0.000000 
1.166572 63.209480 468.098694 14.154664 -17.492905 1.278886 0.000001 -0.000002 0.000000 -63.999870 8.702976 15.458320 122.687642 -8.687974 0.032500 -37.626764 6.033911 8.924754 -0.000001 -0.000000 -0.000000 -0.000001 0.000001 0.000000 -19.461067 -3.218696 5.200283 52.660731 -2.219957 -4.214053 -38.150551 -1.850078 2.290208 0.000000 -0.000001 -0.000000 0.000000 0.000001 -0.000000 36.349693 16.283424 -14.542849 0.218881 3.082964 8.072998 -0.101765 3.632392 7.842902 -0.979656 0.350804 -5.389329 -31.560597 0.017647 -10.899542 0.000001 -0.000000 -0.000000 0.000001 -0.000000 -0.000000 0.000001 -0.000000 -0.000000 0.000001 -0.000000 -0.000000 -0.000001 -0.000000 0.000000 0.000001 -0.000000 -0.000000 -0.000001 -0.000000 0.000000 0.000001 -0.000000 -0.000000 0.000001 -0.000000 -0.000000 5.025572 6.335398 2.101884 46.204731 0.040098 -66.783179 0.000001 -108.291830 -0.000004 -2.817221 -11.362985 19.894589 -6.414427 -8.233361 17.003698 23.718568 30.327611 -9.434106 -0.000000 0.000001 -0.000000 -0.886476 2.921759 -35.743715 3.751465 5.462580 -68.937646 0.000001 -0.000000 0.000005 4.637165 8.633564 -54.179038 3.954651 5.536219 -71.057436 -0.000001 -0.000000 0.000001 6.783421 9.445345 -61.737520 3.498544 5.358803 -66.255669 -0.000002 -0.000000 -0.000000 8.450416 18.237510 -61.947985 3.519931 5.368122 -66.484529 -0.000001 -0.000002 0.000001 0.000000 -0.000001 -0.000001 -0.226228 13.923072 1.315631 -52.032186 26.156981 64.729949 0.000032 108.504044 -0.000057 12.299306 17.241411 0.772506 -6.697004 7.238157 -17.467384 12.475109 -21.107142 -8.932715 -0.000000 -0.000006 -0.000000 6.999843 -10.345455 49.443890 3.265927 -4.444927 72.600731 0.000002 0.000003 0.000002 6.612948 -9.280496 55.006464 2.605470 -4.181784 63.836396 -0.000001 -0.000003 0.000002 8.952921 -9.439628 64.627468 2.680996 -4.217940 64.867502 -0.000000 -0.000001 -0.000002 6.597698 -18.997842 54.203579 2.600899 -4.179527 63.773497 -0.000003 0.000003 0.000001 -0.000001 -0.000002 -0.000000 -0.000001 0.000001 0.000000 -0.000001 0.000001 0.000000 -0.000001 0.000001 0.000000 -0.000001 0.000001 0.000000 -0.000001 0.000001 0.000000 -0.000001 0.000001 0.000000 -0.000001 0.000001 0.000000 -0.000001 0.000001 0.000000 -0.000001 0.000001 0.000000 -0.000001 0.000001 0.000000 0.000001 -0.000002 0.000000 0.000001 -0.000002 0.000000 0.000001 -0.000002 0.000000 
1.166572 63.209480 468.098694 14.154664 -17.492905 1.278886 0.000001 -0.000002 0.000000 -63.999870 8.702976 15.458320 122.687642 -8.687974 0.032500 -37.626764 6.033911 8.924754 -0.000001 -0.000000 -0.000000 -0.000001 0.000001 0.000000 -19.461067 -3.218696 5.200283 52.660731 -2.219957 -4.214053 -38.150551 -1.850078 2.290208 0.000000 -0.000001 -0.000000 0.000000 0.000001 -0.000000 36.349693 16.283424 -14.542849 0.218881 3.082964 8.072998 -0.101765 3.632392 7.842902 -0.979656 0.350804 -5.389329 -31.560597 0.017647 -10.899542 0.000001 -0.000000 -0.000000 0.000001 -0.000000 -0.000000 0.000001 -0.000000 -0.000000 0.000001 -0.000000 -0.000000 -0.000001 -0.000000 0.000000 0.000001 -0.000000 -0.000000 -0.000001 -0.000000 0.000000 0.000001 -0.000000 -0.000000 0.000001 -0.000000 -0.000000 5.025572 6.335398 2.101884 46.204731 0.040098 -66.783179 0.000001 -108.291830 -0.000004 -2.817221 -11.362985 19.894589 -6.414427 -8.233361 17.003698 23.718568 30.327611 -9.434106 -0.000000 0.000001 -0.000000 -0.886476 2.921759 -35.743715 3.751465 5.462580 -68.937646 0.000001 -0.000000 0.000005 4.637165 8.633564 -54.179038 3.954651 5.536219 -71.057436 -0.000001 -0.000000 0.000001 6.783421 9.445345 -61.737520 3.498544 5.358803 -66.255669 -0.000002 -0.000000 -0.000000 8.450416 18.237510 -61.947985 3.519931 5.368122 -66.484529 -0.000001 -0.000002 0.000001 0.000000 -0.000001 -0.000001 -0.226228 13.923072 1.315631 -52.032186 26.156981 64.729949 0.000032 108.504044 -0.000057 12.299306 17.241411 0.772506 -6.697004 7.238157 -17.467384 12.475109 -21.107142 -8.932715 -0.000000 -0.000006 -0.000000 6.999843 -10.345455 49.443890 3.265927 -4.444927 72.600731 0.000002 0.000003 0.000002 6.612948 -9.280496 55.006464 2.605470 -4.181784 63.836396 -0.000001 -0.000003 0.000002 8.952921 -9.439628 64.627468 2.680996 -4.217940 64.867502 -0.000000 -0.000001 -0.000002 6.597698 -18.997842 54.203579 2.600899 -4.179527 63.773497 -0.000003 0.000003 0.000001 -0.000001 -0.000002 -0.000000 -0.000001 0.000001 0.000000 -0.000001 0.000001 0.000000 -0.000001 0.000001 0.000000 -0.000001 0.000001 0.000000 -0.000001 0.000001 0.000000 -0.000001 0.000001 0.000000 -0.000001 0.000001 0.000000 -0.000001 0.000001 0.000000 -0.000001 0.000001 0.000000 -0.000001 0.000001 0.000000 0.000001 -0.000002 0.000000 0.000001 -0.000002 0.000000 0.000001 -0.000002 0.000000 
